# xmcd
#
# Track frame offsets:
#	150
#	18730
#	33140
#	48604
#	63956
#	77052
#	93427
#	108611
#	122779
#	142877
#	157067
#	173526
#	186479
#	199811
#
# Disc length: 2849 seconds
#
# Revision: 1
# Processed by: cddbd v1.5.1PL2 Copyright (c) Steve Scherf et al.
# Submitted via: audiograbber 1.83.01
#
DISCID=c00b1f0e
DTITLE=Star Disc - SD119
DYEAR=1900
DGENRE=Karaoke
TTITLE0=McBride, Martina - How Far
TTITLE1=Adkins, Trace - Rough And Ready
TTITLE2=Clark, Terri - Girls Lie Too
TTITLE3=Vassar, Phil - In A Real Love
TTITLE4=Tritt, Travis - Girl's Gone Wild
TTITLE5=Atkins, Rodney - Someone To Share It With
TTITLE6=Turner, Josh - What It Ain't
TTITLE7=Black, Clint - Boogie Man, The
TTITLE8=Alexander, Jessi - Honeysuckle Sweet
TTITLE9=Willmon, Trent - Beer Man
TTITLE10=Jenkins - Blame It On Mama
TTITLE11=Lawson, Shannon - Smokin' Grass
TTITLE12=Pinmonkey - Let's Kill Saturday Night
TTITLE13=Dean, Billy - Thank God I'm A Country Boy
EXTD=
EXTT0=
EXTT1=
EXTT2=
EXTT3=
EXTT4=
EXTT5=
EXTT6=
EXTT7=
EXTT8=
EXTT9=
EXTT10=
EXTT11=
EXTT12=
EXTT13=
PLAYORDER=
